{"title":"These Amazing Shadows 2011 480p DVDRip x264 AC3-Freebee","uid":6925763,"size":2412278106,"categoryP":"video","categoryS":"movies","magnet":"?xt=urn:btih:e1f8b91446d83e77ad98c8a3eed4428aefaf6e92&amp;dn=These+Amazing+Shadows+2011+480p+DVDRip+x264+AC3-Freebee&amp;tr=udp%3A%2F%2Ftracker.openbittorrent.com%3A80&amp;tr=udp%3A%2F%2Fopen.demonii.com%3A1337&amp;tr=udp%3A%2F%2Ftracker.coppersurfer.tk%3A6969&amp;tr=udp%3A%2F%2Fexodus.desync.com%3A6969","seeders":0,"leechers":0,"uploader":"TvTeam","files":9,"time":1325491318,"description":". \n &lt;a href=&quot;\nhttp://www.torrenting.com&quot; rel=&quot;nofollow&quot; target=&quot;_NEW&quot;&gt;\nhttp://www.torrenting.com&lt;/a&gt;          :     Once &amp; For all ;)\n\n\n               www . Torrenting . Com \n\n(((((((((((((= Enjoy No RAR releases =))))))))))))))))))))\n\n\n...................................NFO:....................................\n\n.                       \n                           \n                           _______                _                    \n                          (_______)              | |                   \n                           _____ ____ _____ _____| |__  _____ _____    \n                          |  ___) ___) ___ | ___ |  _ \\| ___ | ___ |   \n                          | |  | |   | ____| ____| |_) ) ____| ____|   \n                          |_|  |_|   |_____)_____)____/|_____)_____)   \n                                                                       \n                           \n                       \n\nGeneral\nComplete name                    : These Amazing Shadows 2011 480p DVDRip x264 AC3-Freebee\nFormat                           : Matroska\nFormat version                   : Version 2\nFile size                        : 2.19 GiB\nDuration                         : 1h 28mn\nOverall bit rate                 : 3 558 Kbps\nEncoded date                     : UTC 2012-01-02 03:34:42\nWriting application              : mkvmerge v5.0.1 ('Es ist Sommer') built on Oct  9 2011 11:55:43\nWriting library                  : libebml v1.2.2 + libmatroska v1.3.0\n\nVideo\nID                               : 1\nFormat                           : AVC\nFormat/Info                      : Advanced Video Codec\nFormat profile                   : &lt;a class=&quot;__cf_email__&quot; href=&quot;/cdn-cgi/l/email-protection&quot; data-cfemail=&quot;b4fcddd3dcf4f8809a85&quot;&gt;[email&amp;#160;protected]&lt;/a&gt;&lt;script cf-hash='f9e31' type=&quot;text/javascript&quot;&gt;\n/* &lt;![CDATA[ */!function(){try{var t=&quot;currentScript&quot;in document?document.currentScript:function(){for(var t=document.getElementsByTagName(&quot;script&quot;),e=t.length;e--;)if(t[e].getAttribute(&quot;cf-hash&quot;))return t[e]}();if(t&amp;&amp;t.previousSibling){var e,r,n,i,c=t.previousSibling,a=c.getAttribute(&quot;data-cfemail&quot;);if(a){for(e=&quot;&quot;,r=parseInt(a.substr(0,2),16),n=2;a.length-n;n+=2)i=parseInt(a.substr(n,2),16)^r,e+=String.fromCharCode(i);e=document.createTextNode(e),c.parentNode.replaceChild(e,c)}}}catch(u){}}();/* ]]&gt; */&lt;/script&gt;\nFormat settings, CABAC           : Yes\nFormat settings, ReFrames        : 5 frames\nCodec ID                         : V_MPEG4/ISO/AVC\nDuration                         : 1h 28mn\nBit rate                         : 3 096 Kbps\nWidth                            : 720 pixels\nHeight                           : 400 pixels\nDisplay aspect ratio             : 16:9\nFrame rate                       : 29.970 fps\nColor space                      : YUV\nChroma subsampling               : 4:2:0\nBit depth                        : 8 bits\nScan type                        : Progressive\nBits/(Pixel*Frame)               : 0.359\nStream size                      : 1.87 GiB (85%)\nWriting library                  : x264 core 120 r2120 0c7dab9\n\nEncoding settings                : cabac=1 / ref=5 / deblock=1:0:0 / analyse=0x3:0x113 / me=umh\n / subme=11 / psy=1 / psy_rd=1.00:0.10 / mixed_ref=1 / me_range=24 / chroma_me=1 / trellis=2\n / 8x8dct=1 / cqm=0 / deadzone=21,11 / fast_pskip=1 / chroma_qp_offset=-3 / threads=9\n / sliced_threads=0 / nr=0 / decimate=1 / interlaced=0 / bluray_compat=0 / constrained_intra=0\n / bframes=3 / b_pyramid=2 / b_adapt=2 / b_bias=0 / direct=3 / weightb=1 / open_gop=0 / weightp=2\n / keyint=250 / keyint_min=25 / scenecut=40 / intra_refresh=0 / rc_lookahead=50 / rc=2pass\n / mbtree=1 / bitrate=3096 / ratetol=1.0 / qcomp=0.60 / qpmin=0 / qpmax=69 / qpstep=4\n / cplxblur=20.0 / qblur=0.5 / vbv_maxrate=31250 / vbv_bufsize=31250 / nal_hrd=none\n / ip_ratio=1.40 / aq=1:1.00\n\nDefault                          : Yes\nForced                           : No\n\nAudio\nID                               : 2\nFormat                           : AC-3\nFormat/Info                      : Audio Coding 3\nMode extension                   : CM (complete main)\nCodec ID                         : A_AC3\nDuration                         : 1h 28mn\nBit rate mode                    : Constant\nBit rate                         : 448 Kbps\nChannel(s)                       : 6 channels\nChannel positions                : Front: L C R, Side: L R, LFE\nSampling rate                    : 48.0 KHz\nBit depth                        : 16 bits\nCompression mode                 : Lossy\nStream size                      : 283 MiB (13%)\nLanguage                         : English\nDefault                          : Yes\nForced                           : No\n\nText\nID                               : 3\nFormat                           : VobSub\nCodec ID                         : S_VOBSUB\nCodec ID/Info                    : The same subtitle format used on DVDs\nLanguage                         : English\nDefault                          : Yes\nForced                           : No\n\nMenu\n00:00:00.000                     : :Chapter 1\n00:05:00.000                     : :Chapter 2\n00:10:00.000                     : :Chapter 3\n00:15:00.000                     : :Chapter 4\n00:20:00.000                     : :Chapter 5\n00:25:00.000                     : :Chapter 6\n00:30:00.000                     : :Chapter 7\n00:35:00.000                     : :Chapter 8\n00:40:00.000                     : :Chapter 9\n00:45:00.000                     : :Chapter 10\n00:50:00.000                     : :Chapter 11\n00:55:00.000                     : :Chapter 12\n01:00:00.000                     : :Chapter 13\n01:05:00.000                     : :Chapter 14\n01:10:00.000                     : :Chapter 15\n01:15:00.000                     : :Chapter 16\n01:20:00.000                     : :Chapter 17\n01:25:00.000                     : :Chapter 18\n\n\n\n\n              IMDb Rating..........: 7.1/10\n              IMDb.................: http://www.imdb.com/title/tt1273222/\n\n              Plot.................: Tells the history and importance of The National Film\n Registry, a roll call of American cinema treasures that reflects the diversity of film, and\n indeed the American experience itself. \n\n              Director.............: Paul Mariano, Kurt Norton\n              Writer...............: Douglas Blush, Paul Mariano\n              Stars................: Jeff Adachi, James H. Billington and Robin Blaetz\n              Genre................: Documentary\n              Rated................: NR","torrent":{"xt":"urn:btih:e1f8b91446d83e77ad98c8a3eed4428aefaf6e92","amp;dn":"These+Amazing+Shadows+2011+480p+DVDRip+x264+AC3-Freebee","amp;tr":["udp%3A%2F%2Ftracker.openbittorrent.com%3A80","udp%3A%2F%2Fopen.demonii.com%3A1337","udp%3A%2F%2Ftracker.coppersurfer.tk%3A6969","udp%3A%2F%2Fexodus.desync.com%3A6969"],"infoHash":"e1f8b91446d83e77ad98c8a3eed4428aefaf6e92","infoHashBuffer":{"type":"Buffer","data":[225,248,185,20,70,216,62,119,173,152,200,163,238,212,66,138,239,175,110,146]},"announce":[],"urlList":[]}}